# xmcd
# 
# Track frame offsets:
#     150
#     21195
#     41232
#     60057
#     80712
#     105060
#     123062
#     132955
#     155255
#     172685
#     183980
#     208945
#     224932
#     248325
# 
# Disc length: 3552
# 
# Revision: 1
# Processed by: cddbd v1.5.2PL0 Copyright (c) Steve Scherf et al.
# Submitted via: BonkEnc v1.0.8
# 
DISCID=b00dde0e
DTITLE=Richie Beirach - Ballads II
DYEAR=1987
DGENRE=Contemporary Jazz
TTITLE0=My Funny Valentine
TTITLE1=Chelsea Bridge
TTITLE2=The Pearl
TTITLE3=Alone Together
TTITLE4=Flamenco Sketches
TTITLE5=Zal
TTITLE6=Toung And Foolish
TTITLE7=Summer Night
TTITLE8=D.L.
TTITLE9=Old Folks
TTITLE10=Stella By Starlight
TTITLE11=Anse des Flamands
TTITLE12=The Peacocks
TTITLE13=Night and Day
EXTD=
EXTT0=
EXTT1=
EXTT2=
EXTT3=
EXTT4=
EXTT5=
EXTT6=
EXTT7=
EXTT8=
EXTT9=
EXTT10=
EXTT11=
EXTT12=
EXTT13=
PLAYORDER=
